:SAMPLES-PER-SECOND 30
:FULLY-SPECIFIED
:DEGREES
377
root  -20.7504 37.7766 -10.9343 -16.8428 -75.8632 11.7604
RightUpLeg  19.3937 -21.1805 -11.0626
RightLeg  36.2703 4.83379 3.50308
RightFoot  -9.00606 -0.296508 12.2778
RightToes  0.00048216 0.542163 -0.142577
Spine  12.5193 7.86065 12.7137
Spine1  11.9678 14.9337 -17.2254
HEad  14.5269 -1.96212 -2.49117
LeftShoulder1  7.39068 -11.4415 -42.9904
LeftArm  -27.085 35.1256 -23.6751
LeftForeArm  29.3601 -75.3288 -47.5895
LeftHand  -0.25398 0.0180481 5.50724
RightShoulder  6.37433 11.9708 35.2214
RightArm  48.2231 31.2498 65.2395
RightForeArm  -25.8754 32.4525 8.45774
RightHand  0.0175179 -8.03484 -3.1271
LeftUpLeg  -25.6946 22.4938 -16.8127
LeftLeg  18.6876 6.95429 3.6038
LeftFoot  3.43161 -1.99746 15.2208
LeftToes  1.06248e-005 4.65856e-005 -8.18499e-006
378
root  -22.3962 37.7395 -10.8684 -21.5469 -73.4837 16.3917
RightUpLeg  12.564 -20.3058 -12.5074
RightLeg  49.264 2.56449 2.79813
RightFoot  5.32932 -1.6664 11.764
RightToes  0.00048216 0.542163 -0.142577
Spine  14.3477 7.27151 9.60144
Spine1  11.6053 14.1251 -17.1935
HEad  14.5187 -1.20461 -2.85488
LeftShoulder1  7.53986 -11.7269 -43.0402
LeftArm  -26.6057 33.8414 -22.9601
LeftForeArm  25.3053 -74.3263 -43.5871
LeftHand  -0.25398 0.0180481 5.50724
RightShoulder  6.35439 11.9999 35.0178
RightArm  48.878 31.8148 66.2171
RightForeArm  -25.2715 30.7709 7.9707
RightHand  -0.0110592 -6.51584 -3.41297
LeftUpLeg  -24.909 18.5953 -16.5707
LeftLeg  24.1661 9.65172 5.01422
LeftFoot  0.513587 -1.64421 15.5914
LeftToes  1.06248e-005 4.65856e-005 -8.18499e-006
379
root  -23.7815 37.727 -10.8491 -23.9626 -71.1294 19.1331
RightUpLeg  3.68625 -19.4357 -12.9825
RightLeg  61.2472 0.43687 0.29258
RightFoot  13.6159 -1.92455 9.06524
RightToes  0.00048216 0.542163 -0.142577
Spine  16.6017 6.74971 6.88029
Spine1  11.4117 13.3306 -17.0855
HEad  14.0907 -0.764189 -3.58641
LeftShoulder1  7.73676 -12.0691 -43.2047
LeftArm  -25.3951 31.9768 -22.5508
LeftForeArm  21.7138 -73.1958 -39.819
LeftHand  -0.25398 0.0180481 5.50724
RightShoulder  6.28011 11.9371 34.7089
RightArm  48.322 32.6908 66.1885
RightForeArm  -24.4193 29.9756 7.72469
RightHand  -0.0373373 -5.31968 -3.90729
LeftUpLeg  -23.9223 17.9303 -17.2331
LeftLeg  27.3384 9.15381 5.43538
LeftFoot  -2.74447 -0.982402 13.2578
LeftToes  1.06248e-005 4.65856e-005 -8.18499e-006
380
root  -25.1072 37.9099 -10.8371 -23.5247 -69.1535 18.8223
RightUpLeg  -4.76273 -18.9683 -12.611
RightLeg  69.4683 -0.918435 -3.45443
RightFoot  13.4557 -1.19429 5.7893
RightToes  0.00048216 0.542163 -0.142577
Spine  19.0794 6.09021 5.58558
Spine1  11.2249 12.5302 -16.901
HEad  13.2458 -0.631149 -4.32466
LeftShoulder1  7.89615 -12.3381 -43.356
LeftArm  -23.7346 29.5601 -22.6413
LeftForeArm  19.3619 -72.176 -36.912
LeftHand  -0.25398 0.0180481 5.50724
RightShoulder  6.24225 11.9014 34.5593
RightArm  46.3741 33.7582 64.9054
RightForeArm  -23.2632 30.2371 7.74498
RightHand  -0.0477927 -4.94009 -3.83454
LeftUpLeg  -21.9973 17.7354 -16.8421
LeftLeg  28.3952 7.6044 4.7824
LeftFoot  -4.69231 -0.680447 12.195
LeftToes  1.06248e-005 4.65856e-005 -8.18499e-006
381
root  -26.4096 38.2647 -10.8255 -20.5363 -66.7643 15.8553
RightUpLeg  -11.873 -19.3841 -11.847
RightLeg  72.1822 -1.50182 -6.15252
RightFoot  9.75547 -0.637089 3.8162
RightToes  0.00048216 0.542163 -0.142577
Spine  21.3269 5.03747 5.61949
Spine1  11.1711 11.4485 -16.5253
HEad  12.4052 -0.80692 -4.81805
LeftShoulder1  8.03901 -12.6029 -43.4188
LeftArm  -21.8808 26.4036 -23.2002
LeftForeArm  16.4964 -70.6526 -33.3182
LeftHand  -0.25398 0.0180481 5.50724
RightShoulder  6.19313 11.8409 34.401
RightArm  43.6609 34.8226 62.9629
RightForeArm  -21.8544 30.7922 7.8305
RightHand  -0.0457912 -4.93173 -3.17712
LeftUpLeg  -19.5979 16.217 -15.4161
LeftLeg  28.3791 6.66948 4.23786
LeftFoot  -5.75111 -0.544338 11.8011
LeftToes  1.06248e-005 4.65856e-005 -8.18499e-006
382
root  -27.6889 38.6523 -10.8308 -16.448 -63.5644 12.1484
RightUpLeg  -17.9496 -20.3668 -11.1881
RightLeg  69.9685 -1.92411 -6.70684
RightFoot  7.15284 -0.589801 3.92762
RightToes  0.00048216 0.542163 -0.142577
Spine  22.9458 3.85614 6.18868
Spine1  11.1824 10.1613 -15.7514
HEad  11.9243 -1.42 -5.01917
LeftShoulder1  8.25207 -12.9586 -43.617
LeftArm  -19.6425 22.4937 -23.7858
LeftForeArm  12.5625 -68.1363 -28.7065
LeftHand  -0.25398 0.0180481 5.50724
RightShoulder  6.07422 11.6817 34.0454
RightArm  40.421 35.5836 60.5886
RightForeArm  -20.4869 31.1719 7.87112
RightHand  -0.0497815 -4.65722 -2.8229
LeftUpLeg  -17.3772 13.6539 -13.6628
LeftLeg  27.7697 5.99258 3.76155
LeftFoot  -6.66788 -0.376608 10.1748
LeftToes  1.06248e-005 4.65856e-005 -8.18499e-006
383
root  -28.9725 39.0142 -10.8568 -12.7555 -60.1568 9.08664
RightUpLeg  -22.9069 -21.1945 -10.7031
RightLeg  64.2001 -2.92118 -7.12699
RightFoot  5.67311 -0.504633 3.61382
RightToes  0.00048216 0.542163 -0.142577
Spine  24.2954 2.91814 6.85438
Spine1  10.891 8.9738 -14.5572
HEad  11.6579 -2.41431 -5.04511
LeftShoulder1  8.53946 -13.3569 -44.0953
LeftArm  -17.0251 18.3074 -24.1653
LeftForeArm  9.20017 -65.1614 -24.5646
LeftHand  -0.25398 0.0180481 5.50724
RightShoulder  5.93329 11.5148 33.5567
RightArm  36.8125 35.9693 57.6638
RightForeArm  -19.6021 31.4607 7.90869
RightHand  -0.061776 -4.06086 -2.99433
LeftUpLeg  -15.4081 11.2569 -11.8557
LeftLeg  26.7248 4.70094 2.91235
LeftFoot  -7.37329 -0.243191 8.3136
LeftToes  1.06248e-005 4.65856e-005 -8.18499e-006
384
root  -30.2735 39.2696 -10.9197 -10.5483 -56.982 7.48331
RightUpLeg  -25.8419 -21.4841 -10.946
RightLeg  55.1095 -4.81358 -7.77679
RightFoot  3.4375 -0.312565 2.59976
RightToes  0.00048216 0.542163 -0.142577
Spine  25.9325 2.29162 7.03139
Spine1  10.2796 8.01259 -13.414
HEad  11.1533 -3.62583 -4.93234
LeftShoulder1  8.77944 -13.6939 -44.4651
LeftArm  -14.555 14.4037 -24.7501
LeftForeArm  7.53202 -62.5435 -21.6684
LeftHand  -0.25398 0.0180481 5.50724
RightShoulder  5.81812 11.4146 33.0525
RightArm  33.295 36.223 54.5268
RightForeArm  -18.749 31.6873 7.93058
RightHand  -0.0623707 -3.57556 -2.39074
LeftUpLeg  -13.8517 9.05292 -10.3701
LeftLeg  26.219 3.43121 2.17736
LeftFoot  -8.16908 -0.159522 7.55261
LeftToes  1.06248e-005 4.65856e-005 -8.18499e-006
385
root  -31.6588 39.3592 -11.0204 -9.61725 -53.8129 7.3605
RightUpLeg  -26.5883 -21.6648 -12.385
RightLeg  42.454 -6.24004 -6.45571
RightFoot  2.01653 -0.309535 2.75515
RightToes  0.00048216 0.542163 -0.142577
Spine  27.433 1.84883 6.35646
Spine1  9.66878 7.15774 -12.6077
HEad  10.2066 -5.01912 -4.59893
LeftShoulder1  8.88703 -13.9619 -44.3122
LeftArm  -12.5691 10.9274 -25.9329
LeftForeArm  7.11015 -60.2895 -19.5437
LeftHand  -0.25398 0.0180481 5.50724
RightShoulder  5.69534 11.3011 32.5228
RightArm  30.1055 36.5011 51.7699
RightForeArm  -16.7811 31.7617 7.85813
RightHand  -0.027146 -3.3896 -0.053532
LeftUpLeg  -12.925 6.40576 -9.4057
LeftLeg  26.8128 2.74213 1.85116
LeftFoot  -9.66903 -0.0401947 6.56952
LeftToes  1.06248e-005 4.65856e-005 -8.18499e-006
386
root  -33.1435 39.3406 -11.1287 -8.7923 -50.3487 7.85136
RightUpLeg  -26.0221 -21.9256 -14.5876
RightLeg  27.4444 -5.51496 -3.35099
RightFoot  2.40165 -0.454906 3.90597
RightToes  0.00048216 0.542163 -0.142577
Spine  28.138 1.48357 5.30065
Spine1  9.2666 6.22251 -11.6259
HEad  9.11038 -6.42649 -4.15377
LeftShoulder1  8.94229 -14.2315 -43.8886
LeftArm  -10.742 7.74998 -27.3843
LeftForeArm  6.99357 -57.95 -17.6489
LeftHand  -0.25398 0.0180481 5.50724
RightShoulder  5.55719 11.1559 31.9609
RightArm  27.071 36.6658 49.4291
RightForeArm  -13.7759 31.8368 7.73289
RightHand  0.0304163 -3.11342 2.75958
LeftUpLeg  -12.5817 3.11876 -8.6705
LeftLeg  27.7725 2.12946 1.56497
LeftFoot  -11.3993 0.0706264 4.3039
LeftToes  1.06248e-005 4.65856e-005 -8.18499e-006
387
root  -34.683 39.2439 -11.2471 -7.79642 -46.5125 8.35536
RightUpLeg  -24.2753 -20.6902 -17.7135
RightLeg  13.0143 -4.69153 -0.930485
RightFoot  1.44885 -0.52348 4.76528
RightToes  0.00048216 0.542163 -0.142577
Spine  28.475 1.11333 4.27157
Spine1  9.11679 5.11591 -10.0456
HEad  8.23242 -7.53605 -3.87444
LeftShoulder1  9.055 -14.5405 -43.6685
LeftArm  -8.69549 4.75452 -28.5925
LeftForeArm  6.61083 -55.345 -15.8766
LeftHand  -0.25398 0.0180481 5.50724
RightShoulder  5.45587 11.0904 31.4342
RightArm  24.1002 36.644 47.1141
RightForeArm  -11.2519 32.149 7.69095
RightHand  0.0817209 -2.41822 3.9989
LeftUpLeg  -12.6465 -0.769126 -7.9563
LeftLeg  28.9669 1.6313 1.32908
LeftFoot  -12.9094 0.113357 2.45326
LeftToes  1.06248e-005 4.65856e-005 -8.18499e-006
388
root  -36.2855 39.0177 -11.4166 -6.85568 -42.4839 8.4017
RightUpLeg  -21.9809 -17.434 -21.1682
RightLeg  3.69009 -6.00334 -0.040708
RightFoot  -2.01277 -0.458152 5.47562
RightToes  0.00048216 0.542163 -0.142577
Spine  29.2371 0.694939 3.55358
Spine1  9.04309 3.97419 -8.19981
HEad  7.45365 -8.57515 -3.62652
LeftShoulder1  9.17112 -14.8326 -43.5159
LeftArm  -6.58026 1.79484 -29.7696
LeftForeArm  5.76331 -52.4633 -14.2453
LeftHand  -0.25398 0.0180481 5.50724
RightShoulder  5.37721 11.063 30.9594
RightArm  21.2673 36.5898 44.7642
RightForeArm  -9.69222 32.7232 7.76678
RightHand  0.110687 -1.48822 3.69422
LeftUpLeg  -12.9174 -4.9758 -6.78707
LeftLeg  31.1597 1.64476 1.43299
LeftFoot  -14.9832 0.148098 1.82292
LeftToes  1.06248e-005 4.65856e-005 -8.18499e-006
389
root  -37.9302 38.6948 -11.6685 -5.42026 -38.6924 7.40038
RightUpLeg  -21.8217 -17.3011 -21.207
RightLeg  2.81565 -4.20854 -0.365031
RightFoot  -3.51412 -0.482157 6.65157
RightToes  0.00048216 0.542163 -0.142577
Spine  30.5749 0.243326 3.90677
Spine1  8.75769 3.08749 -6.4039
HEad  6.30313 -10.1599 -2.8242
LeftShoulder1  9.13651 -15.0072 -42.9068
LeftArm  -4.77456 -1.22113 -31.4485
LeftForeArm  4.63401 -49.4221 -12.7855
LeftHand  -0.25398 0.0180481 5.50724
RightShoulder  5.25391 10.8903 30.5414
RightArm  18.4574 36.5235 42.6868
RightForeArm  -7.82925 33.5667 7.90146
RightHand  0.133518 -0.620516 3.40129
LeftUpLeg  -13.7764 -8.62033 -4.24762
LeftLeg  34.3534 1.36801 1.35682
LeftFoot  -17.5856 0.0922191 -0.0916619
LeftToes  1.06248e-005 4.65856e-005 -8.18499e-006
390
root  -39.62 38.2835 -12.0258 -3.26859 -34.9917 5.70982
RightUpLeg  -23.5957 -17.0438 -19.8875
RightLeg  7.79406 -3.01795 -0.219791
RightFoot  1.2011 -0.94473 8.48864
RightToes  0.00048216 0.542163 -0.142577
Spine  32.2342 -0.374576 5.04674
Spine1  7.92942 2.40602 -5.12463
HEad  4.63652 -11.9131 -1.4186
LeftShoulder1  8.9256 -15.0418 -41.7638
LeftArm  -3.51804 -4.0937 -33.4045
LeftForeArm  3.87311 -46.8979 -11.7073
LeftHand  -0.25398 0.0180481 5.50724
RightShoulder  5.1335 10.6664 30.2658
RightArm  15.5153 36.356 41.0252
RightForeArm  -5.14265 34.7372 8.08592
RightHand  0.168401 0.0783405 3.60369
LeftUpLeg  -16.6285 -10.7976 -0.315367
LeftLeg  39.3752 0.106544 0.443555
LeftFoot  -18.9005 -0.162188 -4.33802
LeftToes  1.06248e-005 4.65856e-005 -8.18499e-006
391
root  -41.2706 37.8533 -12.4794 -0.95816 -31.0515 3.74815
RightUpLeg  -26.4556 -18.7152 -17.393
RightLeg  14.0389 -1.72635 0.303392
RightFoot  9.22488 -1.74553 10.0369
RightToes  0.00048216 0.542163 -0.142577
Spine  34.4791 -1.57631 6.73666
Spine1  6.74184 1.56619 -4.64599
HEad  2.74759 -12.4052 -0.311544
LeftShoulder1  8.69994 -15.0699 -40.5564
LeftArm  -3.07341 -6.59808 -34.816
LeftForeArm  4.02195 -45.7255 -11.2151
LeftHand  -0.25398 0.0180481 5.50724
RightShoulder  5.13444 10.7417 30.0778
RightArm  12.66 36.483 39.6403
RightForeArm  -2.86293 35.9481 8.30807
RightHand  0.196237 0.764228 3.63645
LeftUpLeg  -21.9166 -11.3487 3.99127
LeftLeg  46.8022 -0.151484 0.3146
LeftFoot  -16.2474 -0.206003 -7.0281
LeftToes  1.06248e-005 4.65856e-005 -8.18499e-006
